<mxfile host="app.diagrams.net" modified="2024-03-20T16:42:55.156Z" agent="Mozilla/5.0 (Windows NT 10.0; Win64; x64) AppleWebKit/537.36 (KHTML, like Gecko) Chrome/122.0.0.0 Safari/537.36 Edg/122.0.0.0" etag="RHZ93jJOyQRRam7QPXfa" version="24.0.7" type="device">
  <diagram id="C5RBs43oDa-KdzZeNtuy" name="Page-1">
    <mxGraphModel dx="1454" dy="603" grid="1" gridSize="10" guides="1" tooltips="1" connect="1" arrows="1" fold="1" page="1" pageScale="1" pageWidth="827" pageHeight="1169" math="0" shadow="0">
      <root>
        <mxCell id="WIyWlLk6GJQsqaUBKTNV-0" />
        <mxCell id="WIyWlLk6GJQsqaUBKTNV-1" parent="WIyWlLk6GJQsqaUBKTNV-0" />
        <mxCell id="WIyWlLk6GJQsqaUBKTNV-2" value="" style="rounded=0;html=1;jettySize=auto;orthogonalLoop=1;fontSize=11;endArrow=block;endFill=0;endSize=8;strokeWidth=1;shadow=0;labelBackgroundColor=none;edgeStyle=orthogonalEdgeStyle;entryX=0.5;entryY=0;entryDx=0;entryDy=0;" parent="WIyWlLk6GJQsqaUBKTNV-1" source="WIyWlLk6GJQsqaUBKTNV-3" target="BDF5ALmhbK_E3HZgn089-3" edge="1">
          <mxGeometry relative="1" as="geometry">
            <mxPoint x="414" y="220" as="targetPoint" />
          </mxGeometry>
        </mxCell>
        <mxCell id="BDF5ALmhbK_E3HZgn089-12" style="edgeStyle=orthogonalEdgeStyle;rounded=0;orthogonalLoop=1;jettySize=auto;html=1;entryX=0.5;entryY=0;entryDx=0;entryDy=0;" edge="1" parent="WIyWlLk6GJQsqaUBKTNV-1" source="WIyWlLk6GJQsqaUBKTNV-3" target="BDF5ALmhbK_E3HZgn089-6">
          <mxGeometry relative="1" as="geometry" />
        </mxCell>
        <mxCell id="WIyWlLk6GJQsqaUBKTNV-3" value="Provider1&lt;div&gt;&lt;br&gt;&lt;/div&gt;&lt;div&gt;produces Sand&lt;/div&gt;" style="rounded=1;whiteSpace=wrap;html=1;fontSize=12;glass=0;strokeWidth=1;shadow=0;" parent="WIyWlLk6GJQsqaUBKTNV-1" vertex="1">
          <mxGeometry x="80" y="80" width="120" height="80" as="geometry" />
        </mxCell>
        <mxCell id="BDF5ALmhbK_E3HZgn089-2" style="edgeStyle=orthogonalEdgeStyle;rounded=0;orthogonalLoop=1;jettySize=auto;html=1;entryX=0.5;entryY=0;entryDx=0;entryDy=0;" edge="1" parent="WIyWlLk6GJQsqaUBKTNV-1" source="BDF5ALmhbK_E3HZgn089-1" target="BDF5ALmhbK_E3HZgn089-3">
          <mxGeometry relative="1" as="geometry">
            <mxPoint x="414" y="220" as="targetPoint" />
          </mxGeometry>
        </mxCell>
        <mxCell id="BDF5ALmhbK_E3HZgn089-13" style="edgeStyle=orthogonalEdgeStyle;rounded=0;orthogonalLoop=1;jettySize=auto;html=1;entryX=0.5;entryY=0;entryDx=0;entryDy=0;" edge="1" parent="WIyWlLk6GJQsqaUBKTNV-1" source="BDF5ALmhbK_E3HZgn089-1" target="BDF5ALmhbK_E3HZgn089-10">
          <mxGeometry relative="1" as="geometry" />
        </mxCell>
        <mxCell id="BDF5ALmhbK_E3HZgn089-1" value="Provider2&lt;div&gt;&lt;br&gt;&lt;/div&gt;&lt;div&gt;produces Wood&lt;/div&gt;" style="rounded=1;whiteSpace=wrap;html=1;fontSize=12;glass=0;strokeWidth=1;shadow=0;" vertex="1" parent="WIyWlLk6GJQsqaUBKTNV-1">
          <mxGeometry x="640" y="80" width="120" height="80" as="geometry" />
        </mxCell>
        <mxCell id="BDF5ALmhbK_E3HZgn089-14" style="edgeStyle=orthogonalEdgeStyle;rounded=0;orthogonalLoop=1;jettySize=auto;html=1;entryX=0.5;entryY=0;entryDx=0;entryDy=0;" edge="1" parent="WIyWlLk6GJQsqaUBKTNV-1" source="BDF5ALmhbK_E3HZgn089-3" target="BDF5ALmhbK_E3HZgn089-7">
          <mxGeometry relative="1" as="geometry" />
        </mxCell>
        <mxCell id="BDF5ALmhbK_E3HZgn089-15" style="edgeStyle=orthogonalEdgeStyle;rounded=0;orthogonalLoop=1;jettySize=auto;html=1;" edge="1" parent="WIyWlLk6GJQsqaUBKTNV-1" source="BDF5ALmhbK_E3HZgn089-3" target="BDF5ALmhbK_E3HZgn089-8">
          <mxGeometry relative="1" as="geometry" />
        </mxCell>
        <mxCell id="BDF5ALmhbK_E3HZgn089-22" style="edgeStyle=orthogonalEdgeStyle;rounded=0;orthogonalLoop=1;jettySize=auto;html=1;" edge="1" parent="WIyWlLk6GJQsqaUBKTNV-1" source="BDF5ALmhbK_E3HZgn089-3" target="BDF5ALmhbK_E3HZgn089-4">
          <mxGeometry relative="1" as="geometry">
            <mxPoint x="630" y="700" as="targetPoint" />
          </mxGeometry>
        </mxCell>
        <mxCell id="BDF5ALmhbK_E3HZgn089-3" value="Producer&lt;div&gt;&lt;br&gt;&lt;/div&gt;&lt;div&gt;produces Windows&lt;/div&gt;" style="rounded=1;whiteSpace=wrap;html=1;fontSize=12;glass=0;strokeWidth=1;shadow=0;" vertex="1" parent="WIyWlLk6GJQsqaUBKTNV-1">
          <mxGeometry x="354" y="220" width="120" height="80" as="geometry" />
        </mxCell>
        <mxCell id="BDF5ALmhbK_E3HZgn089-23" style="edgeStyle=orthogonalEdgeStyle;rounded=0;orthogonalLoop=1;jettySize=auto;html=1;" edge="1" parent="WIyWlLk6GJQsqaUBKTNV-1" source="BDF5ALmhbK_E3HZgn089-4" target="BDF5ALmhbK_E3HZgn089-17">
          <mxGeometry relative="1" as="geometry" />
        </mxCell>
        <mxCell id="BDF5ALmhbK_E3HZgn089-4" value="Retailer&lt;div&gt;&lt;br&gt;&lt;/div&gt;&lt;div&gt;sells Windows&lt;/div&gt;" style="rounded=1;whiteSpace=wrap;html=1;fontSize=12;glass=0;strokeWidth=1;shadow=0;" vertex="1" parent="WIyWlLk6GJQsqaUBKTNV-1">
          <mxGeometry x="354" y="485" width="120" height="80" as="geometry" />
        </mxCell>
        <mxCell id="BDF5ALmhbK_E3HZgn089-6" value="Sand VC" style="ellipse;whiteSpace=wrap;html=1;" vertex="1" parent="WIyWlLk6GJQsqaUBKTNV-1">
          <mxGeometry x="100" y="180" width="80" height="50" as="geometry" />
        </mxCell>
        <mxCell id="BDF5ALmhbK_E3HZgn089-18" style="edgeStyle=orthogonalEdgeStyle;rounded=0;orthogonalLoop=1;jettySize=auto;html=1;exitX=0.5;exitY=1;exitDx=0;exitDy=0;entryX=0.5;entryY=0;entryDx=0;entryDy=0;" edge="1" parent="WIyWlLk6GJQsqaUBKTNV-1" source="BDF5ALmhbK_E3HZgn089-7" target="BDF5ALmhbK_E3HZgn089-11">
          <mxGeometry relative="1" as="geometry" />
        </mxCell>
        <mxCell id="BDF5ALmhbK_E3HZgn089-7" value="Sand VC" style="ellipse;whiteSpace=wrap;html=1;" vertex="1" parent="WIyWlLk6GJQsqaUBKTNV-1">
          <mxGeometry x="110" y="330" width="80" height="50" as="geometry" />
        </mxCell>
        <mxCell id="BDF5ALmhbK_E3HZgn089-19" style="edgeStyle=orthogonalEdgeStyle;rounded=0;orthogonalLoop=1;jettySize=auto;html=1;entryX=0.5;entryY=0;entryDx=0;entryDy=0;" edge="1" parent="WIyWlLk6GJQsqaUBKTNV-1" source="BDF5ALmhbK_E3HZgn089-8" target="BDF5ALmhbK_E3HZgn089-16">
          <mxGeometry relative="1" as="geometry" />
        </mxCell>
        <mxCell id="BDF5ALmhbK_E3HZgn089-8" value="Wood VC" style="ellipse;whiteSpace=wrap;html=1;" vertex="1" parent="WIyWlLk6GJQsqaUBKTNV-1">
          <mxGeometry x="250" y="330" width="80" height="50" as="geometry" />
        </mxCell>
        <mxCell id="BDF5ALmhbK_E3HZgn089-10" value="Wood VC" style="ellipse;whiteSpace=wrap;html=1;" vertex="1" parent="WIyWlLk6GJQsqaUBKTNV-1">
          <mxGeometry x="660" y="180" width="80" height="50" as="geometry" />
        </mxCell>
        <mxCell id="BDF5ALmhbK_E3HZgn089-20" style="edgeStyle=orthogonalEdgeStyle;rounded=0;orthogonalLoop=1;jettySize=auto;html=1;" edge="1" parent="WIyWlLk6GJQsqaUBKTNV-1" source="BDF5ALmhbK_E3HZgn089-11" target="BDF5ALmhbK_E3HZgn089-16">
          <mxGeometry relative="1" as="geometry" />
        </mxCell>
        <mxCell id="BDF5ALmhbK_E3HZgn089-11" value="Glass VC&lt;span style=&quot;color: rgba(0, 0, 0, 0); font-family: monospace; font-size: 0px; text-align: start; text-wrap: nowrap;&quot;&gt;%3CmxGraphModel%3E%3Croot%3E%3CmxCell%20id%3D%220%22%2F%3E%3CmxCell%20id%3D%221%22%20parent%3D%220%22%2F%3E%3CmxCell%20id%3D%222%22%20value%3D%22Sand%20VC%22%20style%3D%22ellipse%3BwhiteSpace%3Dwrap%3Bhtml%3D1%3B%22%20vertex%3D%221%22%20parent%3D%221%22%3E%3CmxGeometry%20x%3D%22334%22%20y%3D%22320%22%20width%3D%2280%22%20height%3D%2250%22%20as%3D%22geometry%22%2F%3E%3C%2FmxCell%3E%3C%2Froot%3E%3C%2FmxGraphModel%3E&lt;/span&gt;" style="ellipse;whiteSpace=wrap;html=1;" vertex="1" parent="WIyWlLk6GJQsqaUBKTNV-1">
          <mxGeometry x="110" y="400" width="80" height="50" as="geometry" />
        </mxCell>
        <mxCell id="BDF5ALmhbK_E3HZgn089-16" value="Window VC" style="ellipse;whiteSpace=wrap;html=1;" vertex="1" parent="WIyWlLk6GJQsqaUBKTNV-1">
          <mxGeometry x="170" y="500" width="80" height="50" as="geometry" />
        </mxCell>
        <mxCell id="BDF5ALmhbK_E3HZgn089-17" value="Window VC" style="ellipse;whiteSpace=wrap;html=1;" vertex="1" parent="WIyWlLk6GJQsqaUBKTNV-1">
          <mxGeometry x="374" y="590" width="80" height="50" as="geometry" />
        </mxCell>
      </root>
    </mxGraphModel>
  </diagram>
</mxfile>
